<svg xmlns="http://www.w3.org/2000/svg" width="188" height="165" viewBox="0 0 188 165" fill="none">
  <path d="M99.0932 20.2585C102.171 14.2405 105.815 9.01406 111.457 5.14949C118.092 0.67369 126.231 -0.976858 134.083 0.562197C162.228 5.89971 161.484 45.9434 161.794 67.9597C162.001 82.7223 162.941 98.7324 160.48 113.243C157.016 133.689 138.81 146.785 118.346 142.37C109.315 140.422 104.565 135.864 99.7543 128.263C98.0022 128.792 97.7672 128.806 95.9394 128.669C91.8499 134.019 88.5528 137.8 82.297 140.498C66.0742 147.447 47.1755 139.948 40.4936 123.439C34.1263 107.717 36.2448 90.3662 36.2886 73.8176C36.3125 62.8209 37.089 52.4174 38.2079 41.5676C40.6529 17.8582 56.6328 -7.29754 83.5752 2.15979C91.3084 4.91017 96.0629 12.6867 99.0932 20.2585Z" fill="#58CF04"/>
  <path d="M95.9383 159.009C85.4616 153.982 100.139 144.578 102.047 152.704C102.517 154.709 101.047 157.028 99.7531 158.603C98.0011 159.132 97.7661 159.146 95.9383 159.009Z" fill="#040404"/>
  <path d="M78.835 101.224C76.4019 102.173 72.1372 99.5332 70.1023 97.987C58.3593 89.8465 57.9253 61.6577 75.1635 60.933C91.243 60.2569 99.2708 85.9426 88.9971 96.7032C88.356 98.7313 86.8786 100.387 84.9354 101.252C82.9922 102.116 80.7702 102.106 78.835 101.224Z" fill="white"/>
  <path d="M78.8348 101.225C75.2112 99.5724 73.5347 95.3538 75.0399 91.6645C76.5412 87.9755 80.6904 86.1302 84.4375 87.4829C88.1846 88.8356 90.1956 92.9041 88.997 96.7033C88.3559 98.7314 86.8785 100.388 84.9353 101.252C82.992 102.117 80.7701 102.107 78.8348 101.225Z" fill="#040404"/>
  <path d="M103.971 96.4055C102.127 95.2252 101.271 91.551 100.646 89.329C96.8951 76.0322 110.267 54.2748 125.283 63.7588C138.412 72.0494 130.627 103.456 113.038 101.943C108.288 101.939 106.173 100.523 103.971 96.4055Z" fill="white"/>
  <path d="M103.971 96.4049C103.19 92.3137 104.365 87.3191 109.04 87.19C118.139 86.9388 122.248 97.2909 113.038 101.943C108.287 101.939 106.173 100.522 103.971 96.4049Z" fill="#040404"/>
  <path d="M46.2381 141.066C51.3193 141.165 50.8313 144.778 48.8682 148.25C49.6952 147.957 50.6361 147.621 51.5037 147.5C52.5449 147.354 53.6023 147.64 54.4293 148.29C55.0909 148.807 55.4949 149.588 55.5329 150.427C55.663 153.564 52.4635 154.193 50.0721 154.193C56.9157 159.502 51.2542 166.562 45.6552 158.606C44.7875 161.852 44.4974 163.591 40.8397 164.093C36.9326 162.1 38.0659 159.665 39.4515 156.318C37.6185 157.312 35.4142 158.098 33.6057 156.572C32.9224 155.993 32.5265 155.146 32.5184 154.251C32.4533 150.745 36.3198 150.335 38.92 150.551C31.2332 144.327 38.7628 137.304 43.1553 146.621C43.2068 146.316 43.261 146.012 43.3152 145.708C43.7762 143.2 44.2046 142.464 46.2381 141.066Z" fill="#FEC838"/>
  <path d="M10.4147 109.2C15.2167 109.909 13.3349 111.803 15.0919 113.84C19.0425 111.964 22.2419 113.595 21.7322 118.426C21.5641 120.035 20.1243 121.016 18.8771 121.907C23.7522 126.51 18.0718 133.519 12.4103 128.101L12.1527 128.104C11.1116 129.712 9.45491 131.454 7.39965 131.059C2.80923 130.176 3.55487 127.381 4.27881 124.109C3.49522 122.474 -2.73563 121.542 1.41283 116.169C2.54078 114.711 4.76415 115.274 6.20391 114.829C7.86059 111.894 5.08682 110.819 10.4147 109.2Z" fill="#B99AFA"/>
  <path d="M158.678 137.164C163.491 137.384 161.533 138.987 163.716 140.724C164.868 140.642 165.774 140.124 167.048 140.04C170.033 139.843 171.218 142.096 171.088 144.804C171.01 146.402 169.776 147.365 168.621 148.332C174.006 153.216 168.675 159.918 162.802 155.368C161.585 158.031 159.611 159.774 156.314 159.024C153.285 158.335 154.603 153.428 153.654 152.032C152.401 151.349 150.156 150.924 149.766 149.268C148.445 143.626 154.524 143.551 154.776 143.306C156.753 141.397 153.266 139.403 158.678 137.164Z" fill="#FE93BB"/>
  <path d="M175.606 107.249C177.941 107.241 177.938 107.591 179.416 109.238L179.717 109.24C179.904 109.028 180.096 108.819 180.289 108.612C181.88 106.924 183.757 106.881 185.533 108.634C186.379 109.466 185.43 111.886 185.099 112.942C185.723 114.301 187.254 114.477 187.534 115.11C189.361 119.261 185.438 120.277 182.781 119.891L182.594 120.354C182.276 122.239 180.801 124.567 178.383 123.97C176.111 123.41 176.563 121.095 175.839 119.612C174.484 119.674 172.19 120.254 171.526 118.834C170.305 116.236 171.539 114.821 173.467 113.472L173.79 113.248C173.974 112.308 173.434 110.991 173.131 110.026C173.386 108.634 174.476 108.034 175.606 107.249Z" fill="#0ABADD"/>
</svg>